# xmcd
#
# Track frame offsets:
#       150
#       19738
#       38013
#       59917
#       78818
#       99290
#       118547
#       144794
#       161330
#       179904
#       205667
#       226902
#       243574
#       263883
#       284509
#       302679
#       324795
#
# Disc length: 4585 seconds
#
# Revision: 1
# Processed by: cddbd v1.4PL0 Copyright (c) Steve Scherf et al.
# Submitted via: MusiCat 1.1
#
DISCID=df11e711
DTITLE=Lionel Richie and The Commodores - The Definitive Collection
DYEAR=2003
DGENRE=
TTITLE0=All Night Long
TTITLE1=Say You, Say Me
TTITLE2=My Destiny
TTITLE3=Running With The Night
TTITLE4=Dancing on the ceiling
TTITLE5=Don't stop the music
TTITLE6=Love Oh Love
TTITLE7=Ballerina Girl
TTITLE8=My Love
TTITLE9=Love Will Conquer All
TTITLE10=Do It to Me
TTITLE11=Cinderella
TTITLE12=Tender Heart
TTITLE13=Don't Wanna Lose You
TTITLE14=The Closest Thing to Heaven
TTITLE15=I Forgot
TTITLE16=Angel
EXTD=\n\n
EXTT0=
EXTT1=
EXTT2=
EXTT3=
EXTT4=
EXTT5=
EXTT6=
EXTT7=
EXTT8=
EXTT9=
EXTT10=
EXTT11=
EXTT12=
EXTT13=
EXTT14=
EXTT15=
EXTT16=
PLAYORDER=
